<svg width="1840" height="486" viewBox="0 0 1840 486" fill="none" xmlns="http://www.w3.org/2000/svg">
<g clip-path="url(#clip0_2035_2930)">
<path d="M698.124 104.01H758.979V192.722C746.725 201.301 732.479 207.906 716.241 212.499C700.003 217.092 684.104 219.408 668.467 219.408C646.29 219.408 626.406 214.777 608.815 205.477C591.187 196.177 577.392 183.194 567.431 166.53C557.433 149.866 552.434 130.924 552.434 109.742C552.434 88.5603 557.433 69.6184 567.431 52.954C577.43 36.2896 591.375 23.2694 609.266 14.0072C627.121 4.6311 647.38 0 669.933 0C690.306 0 708.574 3.45435 724.699 10.3251C740.824 17.2338 754.243 27.2552 764.918 40.4652L720.113 80.3231C707.07 64.9493 691.509 57.2435 673.504 57.2435C658.055 57.2435 645.802 61.9505 636.706 71.3266C627.609 80.7027 623.061 93.4951 623.061 109.704C623.061 125.495 627.572 138.174 636.555 147.778C645.539 157.382 657.567 162.165 672.602 162.165C681.51 162.165 690.005 160.456 698.124 157.078V104.01Z" fill="#3F3F3F"/>
<path d="M788.948 4.7832H858.974V159.735H952.756V214.587H788.91V4.7832H788.948Z" fill="#3F3F3F"/>
<path d="M1014.43 205.325C996.616 195.949 982.671 182.891 972.597 166.226C962.524 149.562 957.449 130.696 957.449 109.742C957.449 88.7501 962.486 69.9221 972.597 53.2577C982.671 36.5933 996.653 23.5351 1014.43 14.159C1032.25 4.70702 1052.32 0 1074.69 0C1097.05 0 1117.12 4.70702 1134.94 14.0831C1152.76 23.4592 1166.7 36.5174 1176.77 53.1818C1186.85 69.8841 1191.92 88.7122 1191.92 109.666C1191.92 130.658 1186.89 149.486 1176.77 166.15C1166.7 182.853 1152.72 195.873 1134.94 205.249C1117.12 214.625 1097.05 219.332 1074.69 219.332C1052.32 219.408 1032.25 214.701 1014.43 205.325ZM1098.29 155.711C1105.32 151.422 1110.92 145.31 1115.06 137.415C1119.23 129.519 1121.29 120.295 1121.29 109.704C1121.29 99.1132 1119.23 89.8889 1115.06 81.9933C1110.88 74.0976 1105.32 68.0241 1098.29 63.6966C1091.26 59.4072 1083.41 57.2435 1074.69 57.2435C1065.97 57.2435 1058.11 59.4072 1051.08 63.6966C1044.05 67.9861 1038.45 74.0976 1034.32 81.9933C1030.14 89.8889 1028.08 99.1132 1028.08 109.704C1028.08 120.295 1030.14 129.519 1034.32 137.415C1038.49 145.31 1044.05 151.422 1051.08 155.711C1058.11 160.001 1065.97 162.165 1074.69 162.165C1083.41 162.165 1091.26 160.001 1098.29 155.711Z" fill="#3F3F3F"/>
<path d="M1409.42 125.002C1416.15 133.809 1419.5 144.4 1419.5 156.774C1419.5 175.147 1411.98 189.382 1396.94 199.479C1381.91 209.577 1360.15 214.625 1331.65 214.625H1214.72V4.7832H1325.72C1353.42 4.7832 1374.35 9.7939 1388.49 19.7773C1402.62 29.7608 1409.72 43.0467 1409.72 59.6352C1409.72 69.4288 1407.28 78.2355 1402.47 86.0173C1397.62 93.7991 1390.44 100.1 1380.97 104.883C1393.19 109.514 1402.7 116.195 1409.42 125.002ZM1283.58 54.2449V85.4099H1316.24C1331.47 85.4099 1339.1 80.2094 1339.1 69.8084C1339.1 59.4074 1331.47 54.2069 1316.24 54.2069H1283.58V54.2449ZM1348.87 148.651C1348.87 137.681 1341.16 132.176 1325.72 132.176H1283.58V165.164H1325.72C1341.16 165.164 1348.87 159.659 1348.87 148.651Z" fill="#3F3F3F"/>
<path d="M1579.93 178.032H1500.99L1487.05 214.587H1415.82L1506.63 4.7832H1575.49L1666.31 214.587H1593.87L1579.93 178.032ZM1560.65 127.09L1540.46 74.3257L1520.28 127.09H1560.65Z" fill="#3F3F3F"/>
<path d="M1676.15 4.7832H1746.17V159.735H1839.95V214.587H1676.11V4.7832H1676.15Z" fill="#3F3F3F"/>
<path d="M746.211 481.217L745.609 385.596L700.504 462.313H669.644L624.539 388.899V481.217H560.715V271.413H618.299L685.958 383.205L751.849 271.413H809.434L810.035 481.217H746.211Z" fill="#3F3F3F"/>
<path d="M843.453 271.413H913.479V481.217H843.453V271.413Z" fill="#3F3F3F"/>
<path d="M1151.79 271.413V481.217H1094.2L1015.27 385.9V481.217H947.008V271.413H1004.59L1083.53 366.73V271.413H1151.79Z" fill="#3F3F3F"/>
<path d="M1185.44 271.413H1255.46V481.217H1185.44V271.413Z" fill="#3F3F3F"/>
<path d="M1493.8 271.413V481.217H1436.21L1357.28 385.9V481.217H1289.02V271.413H1346.6L1425.54 366.73V271.413H1493.8Z" fill="#3F3F3F"/>
<path d="M1663.01 370.602H1723.86V459.314C1711.61 467.893 1697.36 474.498 1681.12 479.091C1664.88 483.684 1648.99 486 1633.35 486C1611.17 486 1591.29 481.369 1573.7 472.069C1556.07 462.769 1542.27 449.786 1532.27 433.122C1522.28 416.458 1517.28 397.516 1517.28 376.334C1517.28 355.152 1522.28 336.21 1532.27 319.546C1542.27 302.882 1556.22 289.861 1574.11 280.599C1592 271.299 1612.26 266.668 1634.81 266.668C1655.19 266.668 1673.45 270.122 1689.58 276.993C1705.71 283.902 1719.12 293.923 1729.8 307.133L1684.99 346.991C1671.95 331.617 1656.39 323.911 1638.39 323.911C1622.94 323.911 1610.68 328.618 1601.59 337.995C1592.49 347.371 1587.94 360.163 1587.94 376.372C1587.94 392.163 1592.45 404.842 1601.44 414.446C1610.42 424.05 1622.45 428.832 1637.48 428.832C1646.39 428.832 1654.89 427.124 1663.01 423.746V370.602Z" fill="#3F3F3F"/>
<path d="M140.954 197.277L0 481.976H281.909L140.954 197.277Z" fill="#3F3F3F"/>
<path d="M297.118 7.47852L179.656 244.728L297.118 481.977H532.005L297.118 7.47852Z" fill="#3F3F3F"/>
</g>
<defs>
<clipPath id="clip0_2035_2930">
<rect width="1840" height="486" fill="white"/>
</clipPath>
</defs>
</svg>
